<?xml version="1.0" encoding="utf-8"?>
<!-- Generator: Adobe Illustrator 19.2.0, SVG Export Plug-In . SVG Version: 6.00 Build 0)  -->
<svg version="1.1" id="Layer_1" xmlns="http://www.w3.org/2000/svg" xmlns:xlink="http://www.w3.org/1999/xlink" x="0px" y="0px"
	 viewBox="0 0 1227.6 2058.9" style="enable-background:new 0 0 1227.6 2058.9;" xml:space="preserve">
<style type="text/css">
	.st0{fill:#C5A64F;}
</style>
<g id="bLbuZA.tif">
	<g>
		<path class="st0" d="M1227.6,626.8c-13,19.4-24.1,40.4-52,42.1c-22,1.4-37.3-8.6-52-23.4C976.6,498.2,829.3,351.1,682.2,203.9
			c-5.9-5.9-10.7-12.9-16-19.3c-2,0.7-4,1.4-6,2.1c0,8.5,0,17.1,0,25.6c0,590.9,0,1181.7,0,1772.6c0,7.6,0.4,15.3-0.2,22.9
			c-2.3,28.9-26.1,51.1-54.5,51.2c-28.5,0.1-52.5-22-54.9-50.8c-0.6-7.6-0.2-15.2-0.2-22.9c0-585.5,0-1171,0-1756.6
			c0-8.2,0-16.5,0-29.6c-8.8,8-14.8,13.1-20.3,18.6C387.7,360,245.4,502.3,103.1,644.7c-12.6,12.6-25.7,23.7-44.9,24.3
			c-23.8,0.8-41.8-8.9-52.1-30.1c-10.1-20.9-7.9-41.5,7.5-59.7c4.9-5.8,10.5-11,15.9-16.4C204.8,387.5,380.1,212.4,555.1,37
			c15-15,29.9-29.4,50.2-37c4.6,0,9.2,0,13.7,0c20.3,7.3,35.8,20.9,50.9,36c173.1,173.6,346.5,347,520,520.1
			c15.6,15.5,30.6,31,37.6,52.4C1227.6,614.6,1227.6,620.7,1227.6,626.8z"/>
	</g>
</g>
</svg>
